<?xml version="1.0" standalone="no"?>
<!DOCTYPE svg PUBLIC "-//W3C//DTD SVG 20010904//EN"
 "http://www.w3.org/TR/2001/REC-SVG-20010904/DTD/svg10.dtd">
<svg version="1.0" xmlns="http://www.w3.org/2000/svg"
 width="198.000000pt" height="197.000000pt" viewBox="0 0 198.000000 197.000000"
 preserveAspectRatio="xMidYMid meet">

<g transform="translate(0.000000,197.000000) scale(0.100000,-0.100000)"
fill="#000000" stroke="none">
<path d="M1005 1795 c-5 -2 -62 -19 -125 -38 -63 -20 -162 -50 -219 -68 l-104
-32 6 -146 c9 -212 44 -334 139 -482 68 -108 248 -273 330 -304 34 -13 234
149 308 250 109 147 129 263 68 383 -26 53 -35 59 -55 39 -14 -14 -14 -18 4
-44 42 -60 54 -144 30 -211 -13 -35 -71 -112 -152 -200 -54 -59 -172 -152
-193 -152 -17 0 -115 71 -170 124 -161 152 -252 366 -252 592 0 88 3 105 18
112 9 5 102 35 207 67 212 65 190 64 360 10 39 -12 112 -35 163 -51 l93 -28
-1 -131 c-1 -90 3 -142 13 -170 l14 -40 12 40 c7 22 15 108 18 191 l6 151 -99
31 c-361 113 -384 119 -419 107z"/>
<path d="M697 1553 c-3 -5 15 -51 39 -103 23 -52 60 -133 81 -180 21 -46 63
-139 93 -205 l56 -120 62 -3 63 -3 45 98 c163 348 234 505 234 514 0 14 -116
11 -127 -3 -8 -11 -46 -94 -173 -375 -19 -40 -36 -73 -40 -73 -3 0 -41 80 -85
178 -43 97 -89 201 -102 230 l-24 52 -59 0 c-32 0 -61 -3 -63 -7z"/>
<path d="M1306 1305 c-3 -9 -3 -35 0 -59 6 -43 -1 -67 -36 -123 -11 -18 -12
-25 -2 -35 9 -9 16 -7 33 8 45 40 62 125 38 193 -12 34 -24 40 -33 16z"/>
<path d="M150 643 c0 -5 15 -54 33 -108 33 -97 35 -100 65 -103 18 -2 32 -2
32 0 0 2 16 50 35 107 19 57 35 105 35 107 0 2 -10 4 -23 4 -19 0 -26 -11 -46
-75 -13 -41 -27 -77 -31 -80 -4 -3 -19 30 -32 73 -20 62 -29 78 -46 80 -12 2
-22 0 -22 -5z"/>
<path d="M395 603 c-9 -27 -27 -76 -40 -110 l-23 -63 25 0 c16 0 27 7 30 20 4
16 14 20 49 20 33 0 46 -5 54 -20 6 -11 20 -20 31 -20 24 0 24 -1 -24 132 -29
80 -34 88 -58 88 -22 0 -29 -7 -44 -47z m59 -45 c10 -39 7 -48 -19 -48 -29 0
-28 -2 -14 39 13 37 24 40 33 9z"/>
<path d="M570 541 c0 -104 1 -111 20 -111 18 0 20 7 20 60 0 33 4 60 9 60 5 0
26 -27 47 -60 29 -44 45 -60 62 -60 21 0 22 3 22 110 0 103 -1 110 -20 110
-18 0 -20 -7 -20 -72 -1 -82 0 -82 -63 17 -20 31 -40 51 -55 53 -22 3 -22 2
-22 -107z"/>
<path d="M827 630 c-77 -61 -44 -205 46 -203 17 1 51 2 75 3 l42 3 0 52 c0 28
-2 54 -4 56 -3 2 -25 3 -51 1 -47 -4 -59 -24 -17 -30 27 -4 28 -20 5 -38 -61
-46 -124 47 -77 114 18 26 65 30 84 7 16 -19 50 -20 50 -1 0 8 -12 24 -26 35
-35 27 -93 27 -127 1z"/>
<path d="M1029 608 c-4 -158 6 -180 86 -182 70 -1 85 22 85 135 0 82 -1 89
-20 89 -18 0 -20 -7 -20 -79 0 -83 -12 -111 -49 -111 -33 0 -41 22 -41 107 0
76 -2 83 -20 83 -17 0 -20 -7 -21 -42z"/>
<path d="M1295 641 c-6 -11 -75 -199 -75 -206 0 -3 11 -5 24 -5 15 0 26 7 29
20 4 16 14 20 50 20 37 0 47 -4 52 -20 4 -12 15 -20 30 -20 l23 0 -39 107
c-22 59 -39 108 -39 110 0 8 -49 2 -55 -6z m49 -108 c6 -20 4 -23 -18 -23 -29
0 -33 17 -15 52 12 23 19 16 33 -29z"/>
<path d="M1460 541 c0 -103 1 -111 19 -111 16 0 20 8 23 38 4 54 37 57 64 5
12 -23 28 -39 42 -41 26 -4 27 -2 5 42 -15 33 -15 37 0 54 21 23 22 71 3 97
-11 15 -30 20 -85 23 l-71 4 0 -111z m120 54 c20 -24 4 -45 -35 -45 -37 0 -52
17 -41 45 7 19 60 20 76 0z"/>
<path d="M1678 557 c-4 -131 -6 -127 57 -127 74 0 101 15 121 66 13 34 14 49
5 77 -18 54 -43 71 -116 75 l-64 4 -3 -95z m112 43 c27 -15 36 -74 16 -105
-12 -19 -25 -25 -51 -25 l-35 0 0 70 c0 68 1 70 26 70 14 0 34 -5 44 -10z"/>
<path d="M983 345 c-27 -19 -36 -54 -15 -62 10 -4 21 2 30 15 8 12 25 22 38
22 20 0 24 -5 24 -29 0 -21 -13 -40 -51 -76 -69 -64 -64 -80 26 -80 58 0 70 3
73 18 3 14 -4 17 -37 17 -23 0 -41 4 -41 8 0 4 18 26 40 47 46 45 52 83 18
115 -26 24 -75 26 -105 5z"/>
<path d="M1163 352 c-13 -8 48 -200 69 -213 19 -12 34 -11 46 3 16 20 73 199
66 209 -13 22 -41 -14 -63 -81 -12 -39 -26 -69 -29 -65 -4 3 -18 38 -32 77
-25 72 -35 84 -57 70z"/>
<path d="M712 338 c3 -7 18 -53 34 -102 20 -63 34 -90 48 -96 39 -14 50 -1 80
93 16 51 31 98 33 105 3 7 -4 12 -19 12 -21 0 -27 -9 -46 -75 -12 -41 -26 -75
-31 -75 -4 0 -18 34 -30 75 -20 68 -25 75 -48 75 -16 0 -23 -5 -21 -12z"/>
</g>
</svg>
