<?xml version="1.0" encoding="UTF-8"?>
<svg version="1.1" viewBox="0 0 2048 1289" width="1280" height="1280" xmlns="http://www.w3.org/2000/svg">
<path transform="translate(567,39)" d="m0 0h364l17 1 20 4 25 7 10 5 15 10 16 12 7 7 7 8 10 12 7 11 7 16 6 14 4 13 2 16 1 62-1 1-231 1-19 2-17 4-29 9-17 8-16 10-14 11-11 9-10 10-1 2h-2l-2 4-11 15-12 21-9 19-4 13-5 27-1 10-1 120-42 1-8 7-7 16-3 12v19l6 24 5 13 6 13 2 7v8l-6 10-8 7-5 2-12-1-16-7-6-5-14-6-13-11-13-10-15-15-6-5-7-10-11-12-7-14-6-7-9-16-10-18-6-10-11-28-7-15-5-13-5-18-11-31-4-17-1-9-1-25v-166l1-29 3-16 9-24 6-12 4-10 13-16 7-9 8-8 17-13 11-7 10-6 14-5 24-6 11-2z" fill="#FEFEFE"/>
<path transform="translate(865,275)" d="m0 0h372l20 4 13 4 25 10 11 7 21 16 12 13 8 10 9 15 9 16 4 10 4 22 3 31v183l-2 22-4 23-4 14-9 24-14 37-7 16-7 15-6 11-10 17-13 21-12 17-11 13-7 8-15 15-12 9-13 10-7 6-16 6-12 6-8 2h-7l-7-3-5-4-4-9v-13l6-20 7-16 5-16 1-7v-14l-3-12-7-13-8-10-302-1-24-2-16-3-21-8-15-6-11-8-17-13-10-9-10-13-11-16-8-16-8-26-3-18-1-18v-185l1-19 3-15 6-20 6-14 10-17 8-10 9-11 9-9 11-9 10-7 17-9 19-7 29-6zm24 39-43 1-17 4-12 5-16 8-11 8-17 17-10 14-8 18-4 11-3 15v213l3 15 6 17 6 14 10 14 8 9 11 9 11 8 25 11 18 5 10 1 324 1 8 7 12 12 7 11 9 17 4 13 2 13v16l-3 19-1 7 5-2 9-9 8-7 9-10 6-7v-2h2l12-17 10-16 12-22 12-25 8-20 11-27 6-17 7-33 1-7v-205l-4-23-6-19-9-14-18-21-14-11-21-11-19-6-6-1-53-1z" fill="#FEFEFE"/>
<path transform="translate(1634,326)" d="m0 0h9l8 4 5 8 1 13v332l-1 12-6 11-4 3-11 1-17-6-19-8-20-6-24-10-10-4-13-4-39-15-21-7-25-11-19-7-6-4-6-7-1-3-1-27v-170l2-7 7-8 14-8 21-7 14-5 28-11 26-9 25-10 21-7 31-13 14-5 15-4zm-20 48-29 12-35 12-34 14-24 8-27 11-10 3-1 1v164l13 6 24 9 18 6 27 11 24 8 23 10 15 6 16 5h4v-286z" fill="#FEFEFE"/>
<path transform="translate(1877 1e3)" d="m0 0h6l5 4 5 10 2 9 1 11 1 29 1 52 1 26 5-5 14-23 19-37 10-18 7-10 6-10 9-6 8-3 8 1 9 4 4 4 5 16 1 6v23l-6 46-6 25-9 27-8 22-4 6-5 3-8-1-5-12-1-3v-54l3-34 1-12-9 14-10 16-8 14-10 14-10 12-10 6-2 1h-8l-6-3-6-7-5-16-2-14-1-17v-31l-14 36-8 20-7 15-19 40-10 19-11 19-7 8-7 4h-10l-6-7-1-3v-9l6-23 6-15 17-38 16-36 18-38 7-16 9-16 8-17 6-12 7-8 6-7z" fill="#FEFEFE"/>
<path transform="translate(1682,1014)" d="m0 0 12 2 6 5 8 16 2 10 1 12v15l-3 29-3 17 24 4 8 3 2 4-5 5-33 1-5 16-6 20-9 19-9 15-5 7-2 1h-8l-3-3-1-2v-32l2-40-35 8-15 5-5 5-9 24-7 18-7 14-3 3-4-2-1-1v-13l3-16 5-17 3-7-11-1-4-3 1-6 4-5 15-8 4-2 25-50 12-18 10-14 13-16 16-16 10-5zm-14 31-5 5-10 11-12 17-8 13-13 23-6 9v2l11-1 29-4 3-3 9-49 4-23z" fill="#FEFEFE"/>
<path transform="translate(543,1014)" d="m0 0 10 1 5 3 6 10 4 9 3 15v31l-5 32-1 6 20 2 12 3 3 3-1 4-4 3-15 1h-19l-7 26-6 15-13 27-7 9-2 1h-8l-3-3-1-3v-34l2-37-28 6-20 6-6 2-2 6-6 16-10 25-7 15-5-1-2-2v-11l7-31 3-10-10-1-5-5 3-6 8-6 13-7 5-8 10-21 10-19 14-22 10-14 11-13 7-8 7-7 8-5zm-15 31-12 13-13 18-7 11-9 15-11 20v3l17-2 21-3 3-1 5-25 8-45v-4z" fill="#FEFEFE"/>
<path transform="translate(724,990)" d="m0 0h6l6 5 1 9-5 26-11 46-6 29-12 44-6 27-9 27-7 19-3 12 7-1 25-2 31-4 21-1 5 3 1 4-4 5-10 4-12 4-29 10-25 5-7 1h-20l-11-4-7-6-4-10-1-4v-18l4-20 12-36 5-17 19-57 5-16 14-33 8-22 11-20z" fill="#FEFEFE"/>
<path transform="translate(1448,1016)" d="m0 0h22l14 2 5 3 3 4 4 8 1 7-3 6-3 1-9-6-8-1h-24l-4 1-9 53-1 4h58l17 2 11 4 5 6 1 5-2 4-2 1-11-1h-18l-23 2-21 5-20 7-3 4-6 21-7 30v6h26l38-7 11-1 6 4-2 5-10 5-16 6-20 8-20 4-18 1-13-2-6-4-4-5-6-13-1-14 2-19 9-39 9-27 8-25 5-16 2-4-15 5h-5l-3-3-1-3v-7l4-5 13-9 12-7 12-4z" fill="#FEFEFE"/>
<path transform="translate(309,1016)" d="m0 0h22l14 2 6 4 5 10 1 3v7l-2 5-5-1-8-5-6-1h-28l-2 1-9 54-1 4 9-1h50l19 2 9 5 4 5 1 6-5 5-8-2h-19l-22 2-16 3-21 7-9 6-7 26-5 24v7h25l44-8 9 1 2 2-1 6-5 3-16 6-22 9-16 4-7 1h-27l-7-2-7-8-5-8-2-6v-22l4-20 10-40 16-45 4-13v-3l-14 5h-6l-3-7 1-8 7-6 19-12 11-4 8-2z" fill="#FEFEFE"/>
<path transform="translate(900,1017)" d="m0 0h28l10 4 4 7v10l-5 5-7-1-10-2-12 1-18 8-17 9-15 9-20 14-16 13-9 8 8 2 44 6 18 4 17 6 4 5 5 10 1 10-4 11-7 10-9 8-15 10-19 11-17 5-22 4h-31l-9-2-5-3v-5l6-5 7-3 30-7 17-5 12-6 24-14 9-7 2-4-17-3-54-6-12-4-8-5-7-8v-14l4-9 8-10 3-4h2l1-3 8-7 9-8 15-11 15-10 14-8 16-8 11-5z" fill="#FEFEFE"/>
<path transform="translate(140,1018)" d="m0 0h12l10 4 5 5 4 5 3 9v15l-3 14-4 8-9 13-9 11-11 11-17 11-12 7 6 7 14 15 7 7 7 8 12 14 7 8 4 8v2l-2 1h-8l-10-5-15-13-14-12-12-11-13-10-7-6-3 9-10 26-8 19-8 15-3 3h-6l-2-2v-13l6-32 9-27 13-35 12-25 8-15 13-19 12-14 7-8 11-7zm5 29-8 7-10 11-9 12-6 11-2 4v3l5-2 14-14 9-12 7-12 2-7z" fill="#FEFEFE"/>
<path transform="translate(1285,1017)" d="m0 0 10 2 8 5 5 6 5 10 1 12-2 10-5 13-7 13-9 11-16 16-13 8-15 8 18 18 7 8 7 7 9 11 11 11 5 9v6l-5 1-11-4-14-12-13-11-14-12-10-9-11-9-2 2-14 34-11 26-5 8-1 1h-7l-1-1v-20l4-20 13-41 5-15 12-26 11-22 11-17 6-9 14-15 8-7 10-5zm-2 31-10 9-10 13-9 12-6 11v2l4-1 8-7 11-11 10-15 5-10v-3z" fill="#FEFEFE"/>
<path transform="translate(1095,1017)" d="m0 0h52l12 3 6 4 3 8-1 10-5 8-8 7h-5l-6-7-13-3-10-1h-25l-17 1 1 6-7 34-5 22-5 23-8 26-9 25-3 19-3 6-4-1-9-10-4-8-2-7v-20l5-42 4-17 11-31 6-17-37 9-10 1-7-6 1-5 8-7 10-6 16-6 31-11 21-5z" fill="#FEFEFE"/>
<path transform="translate(975,571)" d="m0 0 7 1 19 8 13 4 21 3h30l17-2 21-5 10-5 11-4 6 1 10 6 10 11 5 4-2 4-8 7-5 4-10 5-27 8-24 5-21 2h-25l-26-4-22-6-18-6-13-10-9-7 1-3 14-10 9-8z" fill="#FEFEFE"/>
<path transform="translate(882,452)" d="m0 0h15l12 3 9 6 4 5 7 12 3 11v12l-3 9-8 13-4 5-10 6-11 2h-15l-10-3-6-4-9-11-7-11-2-9v-8l2-9 6-10 11-13 7-4z" fill="#FEFEFE"/>
<path transform="translate(1187,452)" d="m0 0h14l13 3 9 6 7 10 5 10 2 7v14l-3 8-9 14-8 7-11 4-6 1h-8l-14-3-10-6-12-17-3-8v-16l4-10 12-16 5-4z" fill="#FEFEFE"/>
</svg>
